<svg xmlns="http://www.w3.org/2000/svg" viewBox="0 0 300 100">
  <defs>
    <linearGradient id="greenGradient" x1="0%" y1="0%" x2="100%" y2="100%">
      <stop offset="0%" style="stop-color:#9BC53D;stop-opacity:1" />
      <stop offset="100%" style="stop-color:#5CB85C;stop-opacity:1" />
    </linearGradient>
    <linearGradient id="blueGradient" x1="0%" y1="0%" x2="100%" y2="100%">
      <stop offset="0%" style="stop-color:#5CB3CC;stop-opacity:1" />
      <stop offset="100%" style="stop-color:#2E86AB;stop-opacity:1" />
    </linearGradient>
  </defs>
  
  <!-- Green circular elements -->
  <circle cx="15" cy="15" r="10" fill="url(#greenGradient)"/>
  
  <!-- Main green shape -->
  <path d="M5 40 Q5 25 20 25 L35 25 Q50 25 50 40 L50 75 Q50 90 35 90 L20 90 Q5 90 5 75 Z" fill="url(#greenGradient)"/>
  <rect x="20" y="40" width="15" height="35" fill="white" rx="7.5"/>
  
  <!-- Blue circular elements -->
  <circle cx="70" cy="25" r="8" fill="url(#blueGradient)"/>
  
  <!-- Main blue shape -->
  <path d="M60 45 Q60 30 75 30 L90 30 Q105 30 105 45 L105 70 Q105 85 90 85 L75 85 Q60 85 60 70 Z" fill="url(#blueGradient)"/>
  <rect x="75" y="50" width="15" height="20" fill="white" rx="7.5"/>
  
  <!-- Company text -->
  <text x="130" y="35" font-family="Arial, sans-serif" font-size="24" font-weight="bold" fill="#333">SKY BORDER</text>
  <text x="130" y="55" font-family="Arial, sans-serif" font-size="24" font-weight="bold" fill="#333">SOLUTIONS</text>
  <text x="130" y="70" font-family="Arial, sans-serif" font-size="10" fill="#666">PVT LTD</text>
  <text x="130" y="85" font-family="Arial, sans-serif" font-size="8" fill="#999">WHERE COMPLIANCE MEET COMPETENCE</text>
</svg>
